<svg width="121" height="120" fill="none" xmlns="http://www.w3.org/2000/svg"><circle cx="60.5" cy="60" r="60" fill="url(#sk4dy4jm9a)"/><circle cx="60.5" cy="60" r="60" fill="url(#xqvs1y1tfb)" fill-opacity=".6"/><path opacity=".247" d="M64.54 114.139V97.304h16.586v6.068h7.402V89.25h12.846v-6.416h6.631v-6.625H93.852v6.625H78.11v-11.1h-8.484v15.707H58.539V76.209H47.487v21.094H34.635v-14.47H19.746V67.1H39.62v-6.093h22.492v5.04h47.173V53.239h-5.98V41.487H112v-6.85H98.129v22.587h-9.601V45.515h-7.402V57.65H69.632v-7.053H19.746V39.17h-7.412v-4.533h7.412V24.26h7.866v14.91H39.62v-8.437h15.346v10.754h14.66V30.733h13.64v3.904h5.262V24.26h14.777v-5.386H91.168v-6.11H73.687v7.82H60.882V4.03H49.508v14.844h-16.39V8.71" stroke="url(#k3wihdithc)" stroke-linecap="round" stroke-linejoin="round"/><mask id="a" style="mask-type:alpha" maskUnits="userSpaceOnUse" x="0" y="0" width="121" height="120"><circle cx="60.5" cy="60" r="60" fill="url(#yz23irmond)"/><circle cx="60.5" cy="60" r="59" stroke="url(#ord7ow6l0e)" stroke-width="2"/></mask><g mask="url(#a)"><path fill-rule="evenodd" clip-rule="evenodd" d="M22.15 112.694V113h.01c.144 2.135 1.79 4.223 4.75 5.973 8.409 5.055 24.922 6.536 36.849 3.348l21.023-5.634c5.734-1.513 10.78-3.886 11.927-6.687.068-.162.123-.324.164-.487l.277-.013V42l-75 15v55.694z" fill="url(#r5snv31n0g)"/><path fill-rule="evenodd" clip-rule="evenodd" d="M22.15 112.694V113h.01c.144 2.135 1.79 4.223 4.75 5.973 8.409 5.055 24.922 6.536 36.849 3.348l21.023-5.634c5.734-1.513 10.78-3.886 11.927-6.687.068-.162.123-.324.164-.487l.277-.013V42l-75 15v55.694z" fill="url(#fz0bjrj8vh)"/><path opacity=".829" fill-rule="evenodd" clip-rule="evenodd" d="M22.15 112.694V113h.01c.144 2.135 1.79 4.223 4.75 5.973 8.409 5.055 24.922 6.536 36.849 3.348l21.023-5.634c5.734-1.513 10.78-3.886 11.927-6.687.068-.162.123-.324.164-.487l.277-.013V42l-75 15v55.694z" fill="url(#ykq2pb88yi)" fill-opacity=".5"/><path d="M51.11 77.786a3 3 0 012.255-2.853l35.04-8.974a3 3 0 013.745 2.906v42.678a3.002 3.002 0 01-1.79 2.746L54.441 130.11c-2.004.882-4.248-.61-4.209-2.799l.877-49.525z" fill="#131D2F"/><path d="M54.15 78v30.5" stroke="url(#wri1sn3l4j)" stroke-linejoin="round"/><path d="M59.15 77v30.5" stroke="url(#buefxu0wsk)" stroke-linejoin="round"/><path d="M64.15 76v30.5" stroke="url(#aqaquneuxl)" stroke-linejoin="round"/><path d="M69.15 75v30.5" stroke="url(#xw7w7m7jzm)" stroke-linejoin="round"/><path d="M74.15 74v30.5" stroke="url(#yoxtgwju0n)" stroke-linejoin="round"/><path d="M79.15 73v30.5" stroke="url(#t67d9r0opo)" stroke-linejoin="round"/><path d="M84.15 71v30.5" stroke="url(#tfwc2c99ep)" stroke-linejoin="round"/><path d="M89.15 69v30.5" stroke="url(#g5v97uvnnq)" stroke-linejoin="round"/><path d="M93.287 36.027c-8.444-5.055-25.255-6.536-37.34-3.348l-21.305 5.666c-5.81 1.513-9.838 3.992-11 6.793-1.008 2.35-.155 4.765 2.556 6.858-1.86 1.16-3.099 2.447-3.641 3.8-1.24 2.865.387 5.827 4.416 8.177 8.522 5.055 25.255 6.536 37.34 3.348l21.305-5.634c5.81-1.513 9.838-3.992 11-6.793 1.007-2.35.155-4.765-2.556-6.858 1.86-1.159 3.099-2.447 3.64-3.8 1.318-2.897-.309-5.859-4.415-8.21z" fill="url(#0b4k6uq7zr)"/><path d="M93.287 36.027c-8.444-5.055-25.255-6.536-37.34-3.348l-21.305 5.666c-5.81 1.513-9.838 3.992-11 6.793-1.008 2.35-.155 4.765 2.556 6.858-1.86 1.16-3.099 2.447-3.641 3.8-1.24 2.865.387 5.827 4.416 8.177 8.522 5.055 25.255 6.536 37.34 3.348l21.305-5.634c5.81-1.513 9.838-3.992 11-6.793 1.007-2.35.155-4.765-2.556-6.858 1.86-1.159 3.099-2.447 3.64-3.8 1.318-2.897-.309-5.859-4.415-8.21z" fill="url(#fwkpr1h51s)"/><path opacity=".829" d="M93.287 36.027c-8.444-5.055-25.255-6.536-37.34-3.348l-21.305 5.666c-5.81 1.513-9.838 3.992-11 6.793-1.008 2.35-.155 4.765 2.556 6.858-1.86 1.16-3.099 2.447-3.641 3.8-1.24 2.865.387 5.827 4.416 8.177 8.522 5.055 25.255 6.536 37.34 3.348l21.305-5.634c5.81-1.513 9.838-3.992 11-6.793 1.007-2.35.155-4.765-2.556-6.858 1.86-1.159 3.099-2.447 3.64-3.8 1.318-2.897-.309-5.859-4.415-8.21z" fill="url(#0ku45f1cut)" fill-opacity=".4"/><path fill-rule="evenodd" clip-rule="evenodd" d="M75.996 31.113c6.78.604 13.118 2.241 17.367 4.785 2.066 1.182 3.524 2.528 4.297 3.957.777 1.435.858 2.949.18 4.44-.54 1.348-1.746 2.617-3.519 3.754 1.278 1.022 2.134 2.124 2.554 3.268.44 1.196.4 2.426-.118 3.635-.598 1.44-1.925 2.782-3.817 3.95-1.895 1.168-4.37 2.171-7.284 2.93l-21.304 5.634c-6.063 1.6-13.286 2.026-20.059 1.422-6.77-.605-13.109-2.243-17.396-4.786-2.028-1.183-3.467-2.528-4.24-3.953-.775-1.43-.877-2.934-.238-4.411.54-1.348 1.746-2.617 3.52-3.755-1.278-1.021-2.134-2.124-2.555-3.267-.44-1.196-.398-2.427.12-3.636.597-1.44 1.924-2.782 3.816-3.949 1.895-1.169 4.369-2.172 7.284-2.931l21.304-5.666c6.063-1.6 13.305-2.026 20.088-1.421zm-20.011 1.71L34.68 38.49c-2.895.754-5.34 1.747-7.203 2.896-1.865 1.15-3.134 2.45-3.698 3.81v.002c-.49 1.14-.526 2.292-.114 3.414.414 1.125 1.283 2.23 2.624 3.265l.17.132-.183.114c-1.845 1.15-3.055 2.417-3.58 3.728l-.002.004c-.6 1.388-.509 2.796.226 4.15.738 1.36 2.127 2.671 4.127 3.838l.001.001c4.234 2.512 10.523 4.142 17.271 4.745 6.745.602 13.932.176 19.955-1.413l21.304-5.634c2.895-.754 5.34-1.747 7.203-2.896 1.865-1.15 3.134-2.45 3.698-3.81v-.001c.49-1.142.526-2.293.114-3.415-.414-1.125-1.283-2.23-2.624-3.265l-.17-.132.183-.114c1.845-1.15 3.055-2.417 3.58-3.728l.003-.006c.638-1.404.565-2.82-.17-4.177-.737-1.363-2.144-2.674-4.183-3.84l-.003-.002c-4.195-2.511-10.483-4.142-17.241-4.745-6.755-.602-13.961-.176-19.984 1.413z" fill="url(#ztrdzly1lu)"/><path d="M54.338 64.77c-6.935.757-14.182-.395-18.234-2.862-2.494-1.447-3.429-3.257-2.728-5.033.146-.277.292-.525.438-.798a.84.84 0 01.985-.413l.526.158c2.571.79 5.376 1.382 8.415 1.777l.444.056c.18.023.3.196.258.371-.078.461.233.954.857 1.35 1.247.756 3.429 1.118 5.533.887.467-.065.935-.131 1.324-.23l21.352-5.757c1.09-.296 1.792-.723 2.026-1.25.234-.526-.078-1.085-.78-1.513-1.246-.756-3.428-1.085-5.532-.855-.468.066-.935.131-1.325.23l-8.182 2.204c-1.325.362-2.805.625-4.364.79-6.935.756-14.182-.395-18.234-2.862-2.416-1.448-3.429-3.257-2.65-5.033.702-1.71 3.195-3.257 6.702-4.178l21.43-5.757c1.324-.362 2.805-.625 4.363-.822 6.935-.757 14.182.395 18.235 2.862 2.493 1.447 3.428 3.257 2.727 5.033a5.23 5.23 0 01-.546.855.93.93 0 01-1.016.337l-.464-.14c-2.572-.789-5.377-1.381-8.416-1.776l-.444-.056a.304.304 0 01-.257-.371c.078-.461-.234-.954-.858-1.35-1.246-.756-3.428-1.085-5.532-.855-.468.066-.935.132-1.325.23l-21.351 5.758c-1.091.296-1.793.723-2.027 1.25-.233.526.078 1.085.78 1.513 1.247.756 3.428 1.085 5.532.855.468-.066.936-.132 1.325-.23l8.182-2.204c1.325-.362 2.806-.625 4.364-.823 6.936-.756 14.183.395 18.235 2.862 2.493 1.448 3.428 3.257 2.727 5.033-.701 1.71-3.195 3.257-6.702 4.178l-21.429 5.757c-1.325.362-2.805.625-4.364.822z" fill="#131D2F"/><path d="M54.338 61.77c-6.935.757-14.182-.395-18.234-2.862-2.494-1.447-3.429-3.257-2.728-5.033.156-.296.312-.559.468-.855l.39-.526 1.09.328c2.572.79 5.377 1.382 8.416 1.777l.78.099-.078.328c-.078.461.233.954.857 1.35 1.247.756 3.429 1.118 5.533.887.467-.065.935-.131 1.324-.23l21.352-5.757c1.09-.296 1.792-.723 2.026-1.25.234-.526-.078-1.085-.78-1.513-1.246-.756-3.428-1.085-5.532-.855-.468.066-.935.131-1.325.23l-8.182 2.204c-1.325.362-2.805.625-4.364.79-6.935.756-14.182-.395-18.234-2.862-2.416-1.448-3.429-3.257-2.65-5.033.702-1.71 3.195-3.257 6.702-4.178l21.43-5.757c1.324-.362 2.805-.625 4.363-.822 6.935-.757 14.182.395 18.235 2.862 2.493 1.447 3.428 3.257 2.727 5.033a5.23 5.23 0 01-.546.855l-.39.526-1.09-.328c-2.572-.79-5.377-1.382-8.416-1.777l-.78-.099.079-.328c.078-.461-.234-.954-.858-1.35-1.246-.756-3.428-1.085-5.532-.855-.468.066-.935.132-1.325.23l-21.351 5.758c-1.091.296-1.793.723-2.027 1.25-.233.526.078 1.085.78 1.513 1.247.756 3.428 1.085 5.532.855.468-.066.936-.132 1.325-.23l8.182-2.204c1.325-.362 2.806-.625 4.364-.823 6.936-.756 14.183.395 18.235 2.862 2.493 1.448 3.428 3.257 2.727 5.033-.701 1.71-3.195 3.257-6.702 4.178l-21.429 5.757c-1.325.362-2.805.625-4.364.822z" fill="url(#mmwyutbfiv)"/><path fill-rule="evenodd" clip-rule="evenodd" d="M33.617 55.5c-.868-1.726-.386-3.447.315-4.5l.416.277c-.631.948-1.05 2.476-.284 4 .767 1.527 2.763 3.125 7.132 4.118 10.945 2.487 17.486.227 19.944-.756 1.017-.407 4.4-1.144 8.308-2.229a1025.87 1025.87 0 0111.128-3.013l.128.483c-2.832.75-7.206 1.925-11.122 3.012-3.925 1.09-2.673.657-4.442 1.247-6 2-13 4.256-24.055 1.743-4.431-1.007-6.602-2.659-7.468-4.381z" fill="url(#dgp8i3422w)"/><g filter="url(#9khmao020x)"><path d="M54.338 59.77c-6.935.757-14.182-.395-18.234-2.862-2.494-1.447-3.429-3.257-2.728-5.033.156-.296.312-.559.468-.855l.39-.526 1.09.328c2.572.79 5.377 1.382 8.416 1.777l.78.099-.078.328c-.078.461.233.954.857 1.35 1.247.756 3.429 1.118 5.533.887.467-.065.935-.131 1.324-.23l21.352-5.757c1.09-.296 1.792-.723 2.026-1.25.234-.526-.078-1.085-.78-1.513-1.246-.756-3.428-1.085-5.532-.855-.468.066-.935.131-1.325.23l-8.182 2.204c-1.325.362-2.805.625-4.364.79-6.935.756-14.182-.395-18.234-2.862-2.416-1.448-3.429-3.257-2.65-5.033.702-1.71 3.195-3.257 6.702-4.178l21.43-5.757c1.324-.362 2.805-.625 4.363-.822 6.935-.757 14.182.395 18.235 2.862 2.493 1.447 3.428 3.257 2.727 5.033a5.23 5.23 0 01-.546.855l-.39.526-1.09-.328c-2.572-.79-5.377-1.382-8.416-1.777l-.78-.099.079-.328c.078-.461-.234-.954-.858-1.35-1.246-.756-3.428-1.085-5.532-.855-.468.066-.935.132-1.325.23l-21.351 5.758c-1.091.296-1.793.723-2.027 1.25-.233.526.078 1.085.78 1.513 1.247.756 3.428 1.085 5.532.855.468-.066.936-.132 1.325-.23l8.182-2.204c1.325-.362 2.806-.625 4.364-.823 6.936-.756 14.183.395 18.235 2.862 2.493 1.448 3.428 3.257 2.727 5.033-.701 1.71-3.195 3.257-6.702 4.178l-21.429 5.757c-1.325.362-2.805.625-4.364.822z" fill="url(#7l88tmcfky)"/></g><g opacity=".239" filter="url(#kvxwwx00oz)"><path d="M54.338 56.77c-6.935.757-14.182-.395-18.234-2.862-2.494-1.447-3.429-3.257-2.728-5.033.156-.296.312-.559.468-.855l.39-.526 1.09.328c2.572.79 5.377 1.382 8.416 1.777l.78.099-.078.328c-.078.461.233.954.857 1.35 1.247.756 3.429 1.118 5.533.887.467-.065.935-.131 1.324-.23l21.352-5.757c1.09-.296 1.792-.723 2.026-1.25.234-.526-.078-1.085-.78-1.513-1.246-.756-3.428-1.085-5.532-.855-.468.066-.935.131-1.325.23l-8.182 2.204c-1.325.362-2.805.625-4.364.79-6.935.756-14.182-.395-18.234-2.862-2.416-1.448-3.429-3.257-2.65-5.033.702-1.71 3.195-3.257 6.702-4.178l21.43-5.757c1.324-.362 2.805-.625 4.363-.822 6.935-.757 14.182.395 18.235 2.862 2.493 1.447 3.428 3.257 2.727 5.033a5.23 5.23 0 01-.546.855l-.39.526-1.09-.328c-2.572-.79-5.377-1.382-8.416-1.777l-.78-.099.079-.328c.078-.461-.234-.954-.858-1.35-1.246-.756-3.428-1.085-5.532-.855-.468.066-.935.132-1.325.23l-21.351 5.758c-1.091.296-1.793.723-2.027 1.25-.233.526.078 1.085.78 1.513 1.247.756 3.428 1.085 5.532.855.468-.066.936-.132 1.325-.23l8.182-2.204c1.325-.362 2.806-.625 4.364-.823 6.936-.756 14.183.395 18.235 2.862 2.493 1.448 3.428 3.257 2.727 5.033-.701 1.71-3.195 3.257-6.702 4.178l-21.429 5.757c-1.325.362-2.805.625-4.364.822z" fill="url(#52trqwwf2A)" fill-opacity=".6"/></g><g opacity=".239" filter="url(#ct315wf0jB)"><path d="M54.338 50.77c-6.935.757-14.182-.395-18.234-2.862-2.494-1.447-3.429-3.257-2.728-5.033.156-.296.312-.559.468-.855l.39-.526 1.09.328c2.572.79 5.377 1.382 8.416 1.777l.78.099-.078.328c-.078.461.233.954.857 1.35 1.247.756 3.429 1.118 5.533.887.467-.065.935-.131 1.324-.23l21.352-5.757c1.09-.296 1.792-.723 2.026-1.25.234-.526-.078-1.085-.78-1.513-1.246-.756-3.428-1.085-5.532-.855-.468.066-.935.131-1.325.23l-8.182 2.204c-1.325.362-2.805.625-4.364.79-6.935.756-14.182-.395-18.234-2.862-2.416-1.448-3.429-3.257-2.65-5.033.702-1.71 3.195-3.257 6.702-4.178l21.43-5.757c1.324-.362 2.805-.625 4.363-.822 6.935-.757 14.182.395 18.235 2.862 2.493 1.447 3.428 3.257 2.727 5.033a5.23 5.23 0 01-.546.855l-.39.526-1.09-.329c-2.572-.789-5.377-1.381-8.416-1.776l-.78-.099.079-.328c.078-.461-.234-.954-.858-1.35-1.246-.756-3.428-1.085-5.532-.854-.468.065-.935.131-1.325.23l-21.351 5.756c-1.091.297-1.793.724-2.027 1.25-.233.527.078 1.086.78 1.514 1.247.756 3.428 1.085 5.532.855.468-.066.936-.132 1.325-.23l8.182-2.204c1.325-.362 2.806-.625 4.364-.823 6.936-.756 14.183.395 18.235 2.862 2.493 1.448 3.428 3.257 2.727 5.033-.701 1.71-3.195 3.257-6.702 4.178l-21.429 5.757c-1.325.362-2.805.625-4.364.822z" fill="url(#hmi02gw1tC)" fill-opacity=".5"/></g><g opacity=".239" filter="url(#pp3dck6iaD)"><path d="M54.338 42.77c-6.935.757-14.182-.395-18.234-2.862-2.494-1.447-3.429-3.257-2.728-5.033.156-.296.312-.559.468-.855l.39-.526 1.09.328c2.572.79 5.377 1.382 8.416 1.777l.78.099-.078.328c-.078.461.233.954.857 1.35 1.247.756 3.429 1.118 5.533.887.467-.065.935-.131 1.324-.23l21.352-5.757c1.09-.296 1.792-.723 2.026-1.25.234-.526-.078-1.085-.78-1.513-1.246-.756-3.428-1.085-5.532-.855-.468.066-.935.131-1.325.23l-8.182 2.204c-1.325.362-2.805.625-4.364.79-6.935.756-14.182-.395-18.234-2.862-2.416-1.448-3.429-3.257-2.65-5.033.702-1.71 3.195-3.257 6.702-4.178l21.43-5.757c1.324-.362 2.805-.625 4.363-.822 6.935-.757 14.182.395 18.235 2.862 2.493 1.447 3.428 3.257 2.727 5.033a5.23 5.23 0 01-.546.855l-.39.526-1.09-.329c-2.572-.789-5.377-1.381-8.416-1.776l-.78-.099.079-.328c.078-.461-.234-.954-.858-1.35-1.246-.756-3.428-1.085-5.532-.854-.468.065-.935.131-1.325.23l-21.351 5.756c-1.091.296-1.793.724-2.027 1.25-.233.527.078 1.086.78 1.514 1.247.756 3.428 1.085 5.532.855.468-.066.936-.132 1.325-.23l8.182-2.204c1.325-.362 2.806-.625 4.364-.823 6.936-.756 14.183.395 18.235 2.862 2.493 1.448 3.428 3.257 2.727 5.033-.701 1.71-3.195 3.257-6.702 4.178l-21.429 5.757c-1.325.362-2.805.625-4.364.822z" fill="url(#si2l1ew5nE)" fill-opacity=".2"/></g></g><path fill-rule="evenodd" clip-rule="evenodd" d="M60 119c32.585 0 59-26.415 59-59S92.585 1 60 1 1 27.415 1 60s26.415 59 59 59zm0-13.767c27.154 0 49.167-22.012 49.167-49.166C109.167 28.913 87.154 6.9 60 6.9S10.834 28.913 10.834 56.067 32.846 105.233 60 105.233z" fill="url(#pivt45xjxF)"/><path opacity=".829" fill-rule="evenodd" clip-rule="evenodd" d="M60 119c32.585 0 59-26.415 59-59S92.585 1 60 1 1 27.415 1 60s26.415 59 59 59zm0-13.767c27.154 0 49.167-22.012 49.167-49.166C109.167 28.913 87.154 6.9 60 6.9S10.834 28.913 10.834 56.067 32.846 105.233 60 105.233z" fill="url(#7r9socfwgG)" fill-opacity=".5"/><circle cx="60.5" cy="60" r="59" stroke="url(#nbrhxqsphH)" stroke-width="2"/><path d="M112.188 57.797l-20.76 6.327-8.086-41.08L63.174 39.57" stroke="url(#re45htxk1I)" stroke-width="1.8" stroke-linejoin="round"/><g style="mix-blend-mode:lighten" opacity=".842" filter="url(#kgqxbg8wtJ)"><circle cx="63.158" cy="39.629" r="8" transform="rotate(-97 63.158 39.629)" fill="#C42E6C"/></g><g style="mix-blend-mode:lighten" filter="url(#itguubj3uK)"><circle cx="63.157" cy="39.629" r="4" transform="rotate(-97 63.157 39.629)" fill="#C42E6C"/></g><circle cx="63.158" cy="39.629" r="2.542" transform="rotate(-97 63.158 39.629)" fill="url(#yiauvsz1oL)"/><path fill-rule="evenodd" clip-rule="evenodd" d="M61.05 39.99a2.025 2.025 0 01.255-1.261 2.034 2.034 0 103.173 2.48 2.034 2.034 0 01-3.428-1.218z" fill="#fff" fill-opacity=".2"/><circle cx="83.922" cy="22.657" r="3.445" transform="rotate(-97 83.922 22.657)" fill="url(#givwkdrgdM)"/><path fill-rule="evenodd" clip-rule="evenodd" d="M81.094 22.509c-.09-.734.069-1.44.41-2.035a3.281 3.281 0 105.12 4 3.281 3.281 0 01-5.531-1.966z" fill="#fff" fill-opacity=".2"/><circle cx="91.421" cy="64.011" r="2.193" transform="rotate(-97 91.42 64.01)" fill="url(#7cl8hzle6N)"/><path fill-rule="evenodd" clip-rule="evenodd" d="M89.62 63.916a2.079 2.079 0 01.263-1.294 2.088 2.088 0 103.258 2.545 2.088 2.088 0 01-3.52-1.25z" fill="#fff" fill-opacity=".2"/><defs><linearGradient id="xqvs1y1tfb" x1="18.5" y1="13" x2="47.5" y2="52" gradientUnits="userSpaceOnUse"><stop stop-color="#B9437C"/><stop offset=".983" stop-color="#1A2536" stop-opacity="0"/></linearGradient><linearGradient id="k3wihdithc" x1="15" y1="68" x2="133.475" y2="76.184" gradientUnits="userSpaceOnUse"><stop stop-color="#515787"/><stop offset="1" stop-color="#474F7B" stop-opacity="0"/></linearGradient><linearGradient id="ord7ow6l0e" x1="-24.727" y1="22.708" x2="4.538" y2="134.632" gradientUnits="userSpaceOnUse"><stop stop-color="#FF5E92"/><stop offset="1" stop-color="#ED4653"/></linearGradient><linearGradient id="r5snv31n0g" x1="17.15" y1="57.5" x2="61.651" y2="92.012" gradientUnits="userSpaceOnUse"><stop offset=".075" stop-color="#2B436F"/><stop offset="1" stop-color="#142035"/></linearGradient><linearGradient id="fz0bjrj8vh" x1="8.15" y1="74.5" x2="39.346" y2="88.294" gradientUnits="userSpaceOnUse"><stop stop-color="#6BA0E2"/><stop offset="1" stop-color="#385076" stop-opacity=".06"/></linearGradient><linearGradient id="wri1sn3l4j" x1="54.15" y1="44.5" x2="57.65" y2="98.5" gradientUnits="userSpaceOnUse"><stop stop-color="#F3CADB"/><stop offset="1" stop-color="#F2C4D7" stop-opacity="0"/></linearGradient><linearGradient id="buefxu0wsk" x1="59.15" y1="69.5" x2="63.15" y2="93" gradientUnits="userSpaceOnUse"><stop stop-color="#F3CADB"/><stop offset="1" stop-color="#F2C4D7" stop-opacity="0"/></linearGradient><linearGradient id="aqaquneuxl" x1="64.15" y1="42.5" x2="67.65" y2="96.5" gradientUnits="userSpaceOnUse"><stop stop-color="#F3CADB"/><stop offset="1" stop-color="#F2C4D7" stop-opacity="0"/></linearGradient><linearGradient id="xw7w7m7jzm" x1="69.15" y1="67.5" x2="73.15" y2="91" gradientUnits="userSpaceOnUse"><stop stop-color="#F3CADB"/><stop offset="1" stop-color="#F2C4D7" stop-opacity="0"/></linearGradient><linearGradient id="yoxtgwju0n" x1="74.15" y1="40.5" x2="77.65" y2="94.5" gradientUnits="userSpaceOnUse"><stop stop-color="#F3CADB"/><stop offset="1" stop-color="#F2C4D7" stop-opacity="0"/></linearGradient><linearGradient id="t67d9r0opo" x1="79.15" y1="65.5" x2="83.15" y2="89" gradientUnits="userSpaceOnUse"><stop stop-color="#F3CADB"/><stop offset="1" stop-color="#F2C4D7" stop-opacity="0"/></linearGradient><linearGradient id="tfwc2c99ep" x1="84.15" y1="63.5" x2="88.15" y2="87" gradientUnits="userSpaceOnUse"><stop stop-color="#F3CADB"/><stop offset="1" stop-color="#F2C4D7" stop-opacity="0"/></linearGradient><linearGradient id="g5v97uvnnq" x1="89.15" y1="61.5" x2="93.15" y2="85" gradientUnits="userSpaceOnUse"><stop stop-color="#F3CADB"/><stop offset="1" stop-color="#F2C4D7" stop-opacity="0"/></linearGradient><linearGradient id="0b4k6uq7zr" x1="26.621" y1="36.161" x2="43.134" y2="80.397" gradientUnits="userSpaceOnUse"><stop offset=".075" stop-color="#2B436F"/><stop offset="1" stop-color="#142035"/></linearGradient><linearGradient id="fwkpr1h51s" x1="17.65" y1="31" x2="44.759" y2="83.735" gradientUnits="userSpaceOnUse"><stop stop-color="#6BA0E2"/><stop offset="1" stop-color="#385076" stop-opacity="0"/></linearGradient><linearGradient id="ztrdzly1lu" x1="44.65" y1="69" x2="52.491" y2="55.066" gradientUnits="userSpaceOnUse"><stop stop-color="#fff"/><stop offset="1" stop-color="#F44880" stop-opacity=".01"/></linearGradient><linearGradient id="mmwyutbfiv" x1="11.207" y1="47" x2="11.207" y2="100.938" gradientUnits="userSpaceOnUse"><stop stop-color="#fff"/><stop offset="1" stop-color="#C42E6C"/></linearGradient><linearGradient id="dgp8i3422w" x1="40.15" y1="59" x2="41.477" y2="54.099" gradientUnits="userSpaceOnUse"><stop stop-color="#fff"/><stop offset="1" stop-color="#F44880" stop-opacity=".01"/></linearGradient><linearGradient id="7l88tmcfky" x1="11.207" y1="45" x2="11.207" y2="98.938" gradientUnits="userSpaceOnUse"><stop stop-color="#fff"/><stop offset="1" stop-color="#C42E6C"/></linearGradient><linearGradient id="52trqwwf2A" x1="11.207" y1="42" x2="11.207" y2="95.938" gradientUnits="userSpaceOnUse"><stop stop-color="#fff"/><stop offset="1" stop-color="#C42E6C"/></linearGradient><linearGradient id="hmi02gw1tC" x1="11.207" y1="36" x2="11.207" y2="89.938" gradientUnits="userSpaceOnUse"><stop stop-color="#fff"/><stop offset="1" stop-color="#C42E6C"/></linearGradient><linearGradient id="si2l1ew5nE" x1="11.207" y1="28" x2="11.207" y2="81.938" gradientUnits="userSpaceOnUse"><stop stop-color="#fff"/><stop offset="1" stop-color="#C42E6C"/></linearGradient><linearGradient id="pivt45xjxF" x1="30.5" y1="12" x2="86.631" y2="95.135" gradientUnits="userSpaceOnUse"><stop stop-color="#527EB6"/><stop offset="1" stop-color="#24344D"/></linearGradient><linearGradient id="nbrhxqsphH" x1="-24.727" y1="22.708" x2="4.538" y2="134.632" gradientUnits="userSpaceOnUse"><stop stop-color="#FF5E92"/><stop offset="1" stop-color="#ED4653"/></linearGradient><linearGradient id="re45htxk1I" x1="107" y1="62" x2="80.522" y2="42.618" gradientUnits="userSpaceOnUse"><stop stop-color="#F4487D" stop-opacity=".01"/><stop offset="1" stop-color="#FC3A78"/></linearGradient><linearGradient id="yiauvsz1oL" x1="62.45" y1="35.03" x2="58.338" y2="39.585" gradientUnits="userSpaceOnUse"><stop stop-color="#FB3B78"/><stop offset="1" stop-color="#EFC7D8"/></linearGradient><linearGradient id="givwkdrgdM" x1="91.508" y1="15.67" x2="72.079" y2="3.873" gradientUnits="userSpaceOnUse"><stop stop-color="#DD1E5B"/><stop offset="1" stop-color="#EFC7D8"/></linearGradient><linearGradient id="7cl8hzle6N" x1="96.248" y1="59.565" x2="83.885" y2="52.057" gradientUnits="userSpaceOnUse"><stop stop-color="#DD1E5B"/><stop offset="1" stop-color="#EFC7D8"/></linearGradient><filter id="9khmao020x" x="26.15" y="23" width="69" height="44" filterUnits="userSpaceOnUse" color-interpolation-filters="sRGB"><feFlood flood-opacity="0" result="BackgroundImageFix"/><feColorMatrix in="SourceAlpha" values="0 0 0 0 0 0 0 0 0 0 0 0 0 0 0 0 0 0 127 0" result="hardAlpha"/><feOffset/><feGaussianBlur stdDeviation="3.5"/><feColorMatrix values="0 0 0 0 0.951002 0 0 0 0 0.370525 0 0 0 0 0.610455 0 0 0 1 0"/><feBlend in2="BackgroundImageFix" result="effect1_dropShadow_124_26861"/><feBlend in="SourceGraphic" in2="effect1_dropShadow_124_26861" result="shape"/></filter><filter id="kvxwwx00oz" x="26.15" y="20" width="69" height="44" filterUnits="userSpaceOnUse" color-interpolation-filters="sRGB"><feFlood flood-opacity="0" result="BackgroundImageFix"/><feColorMatrix in="SourceAlpha" values="0 0 0 0 0 0 0 0 0 0 0 0 0 0 0 0 0 0 127 0" result="hardAlpha"/><feOffset/><feGaussianBlur stdDeviation="3.5"/><feColorMatrix values="0 0 0 0 0.951002 0 0 0 0 0.370525 0 0 0 0 0.610455 0 0 0 1 0"/><feBlend in2="BackgroundImageFix" result="effect1_dropShadow_124_26861"/><feBlend in="SourceGraphic" in2="effect1_dropShadow_124_26861" result="shape"/></filter><filter id="ct315wf0jB" x="26.15" y="14" width="69" height="44" filterUnits="userSpaceOnUse" color-interpolation-filters="sRGB"><feFlood flood-opacity="0" result="BackgroundImageFix"/><feColorMatrix in="SourceAlpha" values="0 0 0 0 0 0 0 0 0 0 0 0 0 0 0 0 0 0 127 0" result="hardAlpha"/><feOffset/><feGaussianBlur stdDeviation="3.5"/><feColorMatrix values="0 0 0 0 0.951002 0 0 0 0 0.370525 0 0 0 0 0.610455 0 0 0 1 0"/><feBlend in2="BackgroundImageFix" result="effect1_dropShadow_124_26861"/><feBlend in="SourceGraphic" in2="effect1_dropShadow_124_26861" result="shape"/></filter><filter id="pp3dck6iaD" x="26.15" y="6" width="69" height="44" filterUnits="userSpaceOnUse" color-interpolation-filters="sRGB"><feFlood flood-opacity="0" result="BackgroundImageFix"/><feColorMatrix in="SourceAlpha" values="0 0 0 0 0 0 0 0 0 0 0 0 0 0 0 0 0 0 127 0" result="hardAlpha"/><feOffset/><feGaussianBlur stdDeviation="3.5"/><feColorMatrix values="0 0 0 0 0.951002 0 0 0 0 0.370525 0 0 0 0 0.610455 0 0 0 1 0"/><feBlend in2="BackgroundImageFix" result="effect1_dropShadow_124_26861"/><feBlend in="SourceGraphic" in2="effect1_dropShadow_124_26861" result="shape"/></filter><filter id="kgqxbg8wtJ" x="47.605" y="24.076" width="31.106" height="31.106" filterUnits="userSpaceOnUse" color-interpolation-filters="sRGB"><feFlood flood-opacity="0" result="BackgroundImageFix"/><feBlend in="SourceGraphic" in2="BackgroundImageFix" result="shape"/><feGaussianBlur stdDeviation="3.776" result="effect1_foregroundBlur_124_26861"/></filter><filter id="itguubj3uK" x="51.605" y="28.076" width="23.105" height="23.105" filterUnits="userSpaceOnUse" color-interpolation-filters="sRGB"><feFlood flood-opacity="0" result="BackgroundImageFix"/><feBlend in="SourceGraphic" in2="BackgroundImageFix" result="shape"/><feGaussianBlur stdDeviation="3.776" result="effect1_foregroundBlur_124_26861"/></filter><radialGradient id="sk4dy4jm9a" cx="0" cy="0" r="1" gradientUnits="userSpaceOnUse" gradientTransform="matrix(0 120 -120 0 60.5 0)"><stop stop-color="#263A5E"/><stop offset="1" stop-color="#0C1321"/></radialGradient><radialGradient id="yz23irmond" cx="0" cy="0" r="1" gradientUnits="userSpaceOnUse" gradientTransform="matrix(0 120 -120 0 60.5 0)"><stop stop-color="#263A5E"/><stop offset="1" stop-color="#0C1321"/></radialGradient><radialGradient id="ykq2pb88yi" cx="0" cy="0" r="1" gradientUnits="userSpaceOnUse" gradientTransform="matrix(43.50002 21.5 -55.75184 112.80033 -3.5 69)"><stop stop-color="#D12A6F"/><stop offset="1" stop-color="#83234B" stop-opacity=".01"/></radialGradient><radialGradient id="0ku45f1cut" cx="0" cy="0" r="1" gradientUnits="userSpaceOnUse" gradientTransform="matrix(42.50002 7.99997 -8.66599 46.03828 4 46.5)"><stop stop-color="#D12A6F"/><stop offset="1" stop-color="#83234B" stop-opacity=".01"/></radialGradient><radialGradient id="7r9socfwgG" cx="0" cy="0" r="1" gradientUnits="userSpaceOnUse" gradientTransform="matrix(101.99926 94.00032 -230.33698 249.93745 7 -5)"><stop stop-color="#D12A6F"/><stop offset="1" stop-color="#83234B" stop-opacity=".01"/></radialGradient></defs></svg>