<svg width="120" height="121" fill="none" xmlns="http://www.w3.org/2000/svg"><circle cx="60" cy="60" r="60" fill="url(#y5ri2vlgfa)"/><circle cx="60" cy="38" r="28" fill="#101928"/><path fill="#111A2B" d="M64.636 71H69v2h-4.364z"/><g filter="url(#g0i5y84j5b)"><path fill="url(#lpnizglscc)" d="M60.513 71H63v2h-2.487z"/></g><g filter="url(#jvkq22ox5d)"><path fill="url(#dns35376ve)" d="M53 71h6v2h-6z"/></g><g opacity=".2"><path fill-rule="evenodd" clip-rule="evenodd" d="M118 58.171c0-5.207-7.062-5.807-9.909-1.447C97.667 72.68 80.018 83.17 60 83.17S22.333 72.68 11.91 56.723C9.062 52.364 2 52.964 2 58.17c0 33.137 25.968 60 58 60s58-26.863 58-60z" fill="url(#qcriwjssjf)"/><path d="M108.091 56.724l-.419-.274.419.274zm-.419-.274C97.334 72.276 79.837 82.671 60 82.671v1c20.198 0 38-10.586 48.509-26.674l-.837-.547zM60 82.671c-19.837 0-37.334-10.395-47.672-26.22l-.837.546C22 73.085 39.8 83.671 60 83.671v-1zm0 35c-31.74 0-57.5-26.623-57.5-59.5h-1c0 33.397 26.175 60.5 58.5 60.5v-1zm57.5-59.5c0 32.877-25.76 59.5-57.5 59.5v1c32.325 0 58.5-27.103 58.5-60.5h-1zm-105.172-1.72c-1.534-2.35-4.203-3.365-6.501-3.088-1.154.14-2.237.607-3.036 1.422-.805.82-1.291 1.964-1.291 3.386h1c0-1.181.397-2.066 1.005-2.686.614-.626 1.474-1.012 2.442-1.129 1.944-.234 4.23.63 5.544 2.641l.837-.547zm96.181.546c1.314-2.01 3.6-2.875 5.544-2.64.968.116 1.828.502 2.442 1.128.608.62 1.005 1.505 1.005 2.686h1c0-1.422-.486-2.565-1.291-3.386-.799-.815-1.882-1.282-3.036-1.422-2.298-.277-4.967.738-6.501 3.087l.837.547z" fill="#000"/></g><circle cx="60" cy="60" r="59" stroke="url(#8ivaqn35tg)" stroke-width="2"/><mask id="a" style="mask-type:alpha" maskUnits="userSpaceOnUse" x="32" y="10" width="56" height="56"><circle cx="60" cy="38" r="28" fill="#101928"/></mask><g mask="url(#a)"><path opacity=".06" fill-rule="evenodd" clip-rule="evenodd" d="M81.444 26.097a24.302 24.302 0 00-2.598-.139c-13.275 0-24.036 10.761-24.036 24.036 0 3.94.948 7.657 2.628 10.938C45.385 59.637 36 49.432 36 37.036 36 23.76 46.761 13 60.036 13c9.335 0 17.427 5.322 21.407 13.097z" fill="#fff"/><g filter="url(#dbqlebev8i)"><path fill-rule="evenodd" clip-rule="evenodd" d="M81.99 28.51L70.544 17.006l.231 53.01 11.294-11.27-.077-30.236z" fill="url(#ye277arurj)"/></g><g filter="url(#wd37pc3chk)"><path fill-rule="evenodd" clip-rule="evenodd" d="M49.64 17.009L79 61.814l-8.216 8.216-29.377-44.706 8.231-8.315z" fill="url(#augmf92icl)"/></g><path opacity=".15" d="M77.826 66.852c-8.511 4.914-5.61 6.582-8.233 2.038-1.763-3.053-.996-1.002-4.27-5.506 2.639-.552 5.61-1.386 8.401-2.998C77.226 58.365 79.9 55.434 82.02 53c-.433 11.47 4.873 8.618-4.193 13.852z" fill="#1B1C35"/></g><path d="M22.5 68.945C32.611 77.819 45.702 83.17 60 83.17c14.299 0 27.388-5.352 37.5-14.226" stroke="url(#7xpwyk8f6m)" stroke-width=".5"/><g filter="url(#kulac42cpn)"><circle cx="32" cy="35" r="1" fill="url(#svvri229go)"/></g><g filter="url(#llv4ks51ep)"><circle cx="88" cy="35" r="1" fill="url(#68wcfnfj8q)"/></g><circle cx="60" cy="38" r="27.75" stroke="url(#3axts8t4rr)" stroke-width=".5"/><g filter="url(#usljg285vs)"><path fill-rule="evenodd" clip-rule="evenodd" d="M38.354 28.402L49.647 17v87.961l-11.293-11.27v-65.29z" fill="url(#vqqm7j13lt)"/></g><path d="M2 68.5L16 61l7.5 18.5L39 84" stroke="url(#ei390y7d2u)" stroke-width="2"/><circle cx="39" cy="84" r="3" transform="rotate(180 39 84)" fill="url(#lxicve7b0v)"/><circle cx="16" cy="61" r="2" transform="rotate(180 16 61)" fill="url(#gfh8hjwwdw)"/><circle cx="23" cy="79.5" r="2.5" transform="rotate(180 23 79.5)" fill="url(#hv3qr7rblx)"/><defs><radialGradient id="y5ri2vlgfa" cx="0" cy="0" r="1" gradientUnits="userSpaceOnUse" gradientTransform="matrix(0 80 -80 0 60 19.5)"><stop stop-color="#3B6099"/><stop offset="1" stop-color="#101A2A"/></radialGradient><radialGradient id="lpnizglscc" cx="0" cy="0" r="1" gradientUnits="userSpaceOnUse" gradientTransform="matrix(9.6232 0 0 7.738 60.513 71)"><stop stop-color="#fff"/><stop offset="1" stop-color="#BF67F0"/></radialGradient><radialGradient id="dns35376ve" cx="0" cy="0" r="1" gradientUnits="userSpaceOnUse" gradientTransform="matrix(23.214 0 0 7.738 53 71)"><stop stop-color="#fff"/><stop offset="1" stop-color="#BF67F0"/></radialGradient><radialGradient id="ye277arurj" cx="0" cy="0" r="1" gradientUnits="userSpaceOnUse" gradientTransform="matrix(-44.5922 0 0 -205.096 82.068 17.006)"><stop stop-color="#fff"/><stop offset="1" stop-color="#BF67F0"/></radialGradient><radialGradient id="augmf92icl" cx="0" cy="0" r="1" gradientUnits="userSpaceOnUse" gradientTransform="matrix(145.449 0 0 205.139 41.408 17.009)"><stop stop-color="#fff"/><stop offset="1" stop-color="#BF67F0"/></radialGradient><radialGradient id="svvri229go" cx="0" cy="0" r="1" gradientUnits="userSpaceOnUse" gradientTransform="translate(31 34) scale(7.738)"><stop stop-color="#fff"/><stop offset="1" stop-color="#BF67F0"/></radialGradient><radialGradient id="68wcfnfj8q" cx="0" cy="0" r="1" gradientUnits="userSpaceOnUse" gradientTransform="translate(87 34) scale(7.738)"><stop stop-color="#fff"/><stop offset="1" stop-color="#BF67F0"/></radialGradient><radialGradient id="vqqm7j13lt" cx="0" cy="0" r="1" gradientUnits="userSpaceOnUse" gradientTransform="matrix(43.6943 0 0 251.332 38.354 17)"><stop stop-color="#fff"/><stop offset="1" stop-color="#BF67F0"/></radialGradient><radialGradient id="lxicve7b0v" cx="0" cy="0" r="1" gradientUnits="userSpaceOnUse" gradientTransform="translate(36 81) scale(23.214)"><stop stop-color="#EFC5FF"/><stop offset="1" stop-color="#BF67F0"/></radialGradient><linearGradient id="qcriwjssjf" x1="60" y1="84.5" x2="60" y2="118.171" gradientUnits="userSpaceOnUse"><stop stop-color="#101828"/><stop offset="1" stop-color="#0A0F18" stop-opacity="0"/></linearGradient><linearGradient id="8ivaqn35tg" x1="-25.227" y1="22.708" x2="4.038" y2="134.632" gradientUnits="userSpaceOnUse"><stop stop-color="#C47EDD"/><stop offset="1" stop-color="#7850D1"/></linearGradient><linearGradient id="7xpwyk8f6m" x1="60" y1="71" x2="60" y2="83.171" gradientUnits="userSpaceOnUse"><stop stop-color="#E4B0FC" stop-opacity="0"/><stop offset="0" stop-color="#FAF1FE" stop-opacity="0"/><stop offset="1" stop-color="#E2ACFC"/></linearGradient><linearGradient id="3axts8t4rr" x1="60" y1="18.09" x2="60" y2="79" gradientUnits="userSpaceOnUse"><stop stop-color="#E4B0FC" stop-opacity="0"/><stop offset="0" stop-color="#FAF1FE" stop-opacity="0"/><stop offset="1" stop-color="#E2ACFC"/></linearGradient><linearGradient id="ei390y7d2u" x1="43.026" y1="84" x2="-4.398" y2="73.594" gradientUnits="userSpaceOnUse"><stop stop-color="#BF99F7"/><stop offset="1" stop-color="#8B60ED" stop-opacity="0"/></linearGradient><linearGradient id="gfh8hjwwdw" x1="18" y1="63" x2="18" y2="59" gradientUnits="userSpaceOnUse"><stop stop-color="#A987F7"/><stop offset="1" stop-color="#B372BD"/></linearGradient><linearGradient id="hv3qr7rblx" x1="25.5" y1="82" x2="25.5" y2="77" gradientUnits="userSpaceOnUse"><stop stop-color="#A987F7"/><stop offset="1" stop-color="#B372BD"/></linearGradient><filter id="g0i5y84j5b" x="56.513" y="67" width="10.487" height="10" filterUnits="userSpaceOnUse" color-interpolation-filters="sRGB"><feFlood flood-opacity="0" result="BackgroundImageFix"/><feColorMatrix in="SourceAlpha" values="0 0 0 0 0 0 0 0 0 0 0 0 0 0 0 0 0 0 127 0" result="hardAlpha"/><feOffset/><feGaussianBlur stdDeviation="2"/><feColorMatrix values="0 0 0 0 0.752051 0 0 0 0 0.222882 0 0 0 0 0.965325 0 0 0 1 0"/><feBlend in2="BackgroundImageFix" result="effect1_dropShadow_327_28516"/><feBlend in="SourceGraphic" in2="effect1_dropShadow_327_28516" result="shape"/></filter><filter id="jvkq22ox5d" x="49" y="67" width="14" height="10" filterUnits="userSpaceOnUse" color-interpolation-filters="sRGB"><feFlood flood-opacity="0" result="BackgroundImageFix"/><feColorMatrix in="SourceAlpha" values="0 0 0 0 0 0 0 0 0 0 0 0 0 0 0 0 0 0 127 0" result="hardAlpha"/><feOffset/><feGaussianBlur stdDeviation="2"/><feColorMatrix values="0 0 0 0 0.752051 0 0 0 0 0.222882 0 0 0 0 0.965325 0 0 0 1 0"/><feBlend in2="BackgroundImageFix" result="effect1_dropShadow_327_28516"/><feBlend in="SourceGraphic" in2="effect1_dropShadow_327_28516" result="shape"/></filter><filter id="dbqlebev8i" x="55.085" y="1.549" width="42.44" height="83.924" filterUnits="userSpaceOnUse" color-interpolation-filters="sRGB"><feFlood flood-opacity="0" result="BackgroundImageFix"/><feColorMatrix in="SourceAlpha" values="0 0 0 0 0 0 0 0 0 0 0 0 0 0 0 0 0 0 127 0" result="hardAlpha"/><feOffset/><feGaussianBlur stdDeviation="7.729"/><feColorMatrix values="0 0 0 0 0.752051 0 0 0 0 0.222882 0 0 0 0 0.965325 0 0 0 0.3 0"/><feBlend in2="BackgroundImageFix" result="effect1_dropShadow_327_28516"/><feBlend in="SourceGraphic" in2="effect1_dropShadow_327_28516" result="shape"/></filter><filter id="wd37pc3chk" x="25.951" y="1.552" width="68.508" height="83.935" filterUnits="userSpaceOnUse" color-interpolation-filters="sRGB"><feFlood flood-opacity="0" result="BackgroundImageFix"/><feColorMatrix in="SourceAlpha" values="0 0 0 0 0 0 0 0 0 0 0 0 0 0 0 0 0 0 127 0" result="hardAlpha"/><feOffset/><feGaussianBlur stdDeviation="7.729"/><feColorMatrix values="0 0 0 0 0.752051 0 0 0 0 0.222882 0 0 0 0 0.965325 0 0 0 0.3 0"/><feBlend in2="BackgroundImageFix" result="effect1_dropShadow_327_28516"/><feBlend in="SourceGraphic" in2="effect1_dropShadow_327_28516" result="shape"/></filter><filter id="kulac42cpn" x="15.543" y="18.543" width="32.914" height="32.914" filterUnits="userSpaceOnUse" color-interpolation-filters="sRGB"><feFlood flood-opacity="0" result="BackgroundImageFix"/><feColorMatrix in="SourceAlpha" values="0 0 0 0 0 0 0 0 0 0 0 0 0 0 0 0 0 0 127 0" result="hardAlpha"/><feOffset/><feGaussianBlur stdDeviation="7.729"/><feColorMatrix values="0 0 0 0 0.752051 0 0 0 0 0.222882 0 0 0 0 0.965325 0 0 0 0.3 0"/><feBlend in2="BackgroundImageFix" result="effect1_dropShadow_327_28516"/><feBlend in="SourceGraphic" in2="effect1_dropShadow_327_28516" result="shape"/></filter><filter id="llv4ks51ep" x="71.543" y="18.543" width="32.914" height="32.914" filterUnits="userSpaceOnUse" color-interpolation-filters="sRGB"><feFlood flood-opacity="0" result="BackgroundImageFix"/><feColorMatrix in="SourceAlpha" values="0 0 0 0 0 0 0 0 0 0 0 0 0 0 0 0 0 0 127 0" result="hardAlpha"/><feOffset/><feGaussianBlur stdDeviation="7.729"/><feColorMatrix values="0 0 0 0 0.752051 0 0 0 0 0.222882 0 0 0 0 0.965325 0 0 0 0.3 0"/><feBlend in2="BackgroundImageFix" result="effect1_dropShadow_327_28516"/><feBlend in="SourceGraphic" in2="effect1_dropShadow_327_28516" result="shape"/></filter><filter id="usljg285vs" x="22.896" y="1.543" width="42.208" height="118.875" filterUnits="userSpaceOnUse" color-interpolation-filters="sRGB"><feFlood flood-opacity="0" result="BackgroundImageFix"/><feColorMatrix in="SourceAlpha" values="0 0 0 0 0 0 0 0 0 0 0 0 0 0 0 0 0 0 127 0" result="hardAlpha"/><feOffset/><feGaussianBlur stdDeviation="7.729"/><feColorMatrix values="0 0 0 0 0.752051 0 0 0 0 0.222882 0 0 0 0 0.965325 0 0 0 0.6 0"/><feBlend in2="BackgroundImageFix" result="effect1_dropShadow_327_28516"/><feBlend in="SourceGraphic" in2="effect1_dropShadow_327_28516" result="shape"/></filter></defs></svg>